<svg xmlns="http://www.w3.org/2000/svg" viewBox="0 0 100 100"><circle cx="50" cy="50" r="45" fill="#2563eb"/><path d="M75.27 87.19L74.84 87.44L75.11 87.25L75.36 87.07L75.48 86.98L75.67 86.91L75.27 87.19ZM78.15 71.36L78.1 72.14L78.19 72.4L78.06 72.73L77.92 72.96L77.8 72.63L77.65 72.85L77.66 73.31L77.55 73.59L77.36 73.79L77.19 74.34L76.78 75.14L76.27 76.08L75.58 77.33L75.1 78.22L74.61 78.96L74.1 79.22L73.51 79.58L73.23 79.52L72.83 79.42L72.76 79.16L72.88 78.65L72.81 78.23L72.87 77.81L73.09 77.35L73.4 77.18L73.46 76.98L73.86 76.44L74.01 76.04L73.94 75.77L73.91 75.41L73.99 74.83L74.28 74.42L74.44 74L74.75 73.9L75.12 73.68L75.37 73.51L75.64 73.43L76.06 72.97L76.63 72.44L76.87 72.06L76.84 71.8L77.08 71.81L77.49 71.25L77.57 70.84L77.81 70.49L77.97 70.72L78.08 70.96L78.15 71.36ZM95 50.06L94.99 49.51L94.96 49.03L94.92 48.81L94.87 48.32L94.81 48.1L94.69 47.57L94.64 47.22L94.77 46.81L94.86 47.29L94.91 47.58L94.93 47.74L94.97 48.28ZM92.35 50.36L92.15 50.75L91.96 50.28L91.77 49.25L91.71 47.94L91.95 48.18L92.15 48.58L92.38 49.23L92.44 50.04L92.35 50.36ZM8.13 47.53L7.91 47.4L7.98 47.16L8.03 46.86L8.19 46.91L8.13 47.53ZM8.6 40.41L8.5 40.53L8.36 40.34L8.26 40.22L8.35 39.9L8.55 40.03L8.62 40.22L8.6 40.41ZM7.23 37.82L7.2 37.6L7.28 37.2L7.36 37.44L7.33 37.75L7.27 37.98L7.23 37.82ZM8.03 37.5L8.08 37.82L8.23 37.93L8.23 38.26L8.2 38.61L8.2 38.94L8.24 39.46L8.08 39.66L8.07 39.38L7.96 39.18L7.87 39L7.59 39.41L7.6 39.23L7.66 39.01L7.63 38.72L7.53 38.45L7.49 38.1L7.57 37.9L7.61 38.23L7.66 38.48L7.81 37.99L7.91 37.72L7.9 37.45L7.99 37.31L8.03 37.5ZM8.51 33.72L8.4 34.06L8.45 34.22L8.38 34.47L8.23 35.11L8.12 35.57L8.12 35.94L8.03 36.12L8.07 36.33L8.01 36.8L7.94 36.94L7.8 36.73L7.79 36.5L7.71 36.2L7.88 35.98L7.94 35.7L7.94 35.49L8.01 35.21L8.17 34.75L8.23 34.22L8.29 34.01L8.35 33.58L8.42 33.36L8.53 33L8.4 33.18L8.4 32.99L8.56 32.72L8.63 33.05L8.61 33.25L8.51 33.72ZM8.85 33.57L9.01 33.09L9.09 32.8L9.31 32.43L9.04 33.17L8.85 33.57ZM9.79 31.6L9.71 31.45L9.84 31.19L9.88 31.42L9.79 31.6ZM9.81 31.79L9.56 32.23L9.78 31.75L9.91 31.38L9.81 31.79ZM65.2 36.71L64.89 37.09L64.97 37.22L64.47 37.67L64.15 37.62L63.94 37.34L64.22 37.27L64.3 37.07L64.73 37.01L65.2 36.71ZM58.65 37.46L59.03 37.69L59.51 37.6L59.97 37.61L60.3 37.62L60.26 37.85L59.38 38L58.59 37.79L58.65 37.46ZM53.4 35.87L53.21 36.46L53.32 36.69L53.21 37.08L52.72 36.81L52.4 36.74L51.51 36.37L51.59 35.99L52.31 36.04L52.94 35.95L53.4 35.87ZM49.53 33.72L49.89 34.24L49.8 35.22L49.52 35.17L49.27 35.42L49.04 35.22L49.04 34.33L48.91 33.9L49.23 33.94L49.53 33.72ZM49.74 33.03L49.55 33.59L49.28 33.44L49.15 32.95L49.28 32.68L49.65 32.41L49.74 33.03ZM20.3 22.28L20.34 22.48L20.51 22.63L20.2 22.78L20.14 22.28L20.29 22.05L20.52 21.94L20.3 22.28ZM22.01 21.18L21.91 20.72L22.05 20.31L22.19 20.68L22.11 21.08ZM23.93 21.23L23.31 21.61L23.63 21.52L23.65 21.75L23.39 21.89L23.43 22.19L23.66 22.12L23.72 22.45L23.26 22.82L23.51 22.84L23.26 23.17L23.02 23.58L22.46 24.03L22.27 23.76L22.75 23.31L22.04 23.51L21.92 23.39L22.32 23.23L22.24 22.93L21.99 22.79L21.62 22.45L21.76 22.25L22.06 22.16L22.13 21.93L22.62 21.73L23.7 21.02L24.14 20.81L24.51 20.75L24.39 20.96L23.93 21.23ZM42.04 25.58L41.12 25.88L40.5 25.7L41.08 25.07L41.06 24.38L41.82 23.95L42.23 23.69L42.6 23.71L42.95 24.14L42.6 24.56L42.55 25.03L42.04 25.58ZM51.19 23.79L50.95 24.31L50.47 23.95L50.4 23.69L51.04 23.47L51.19 23.79ZM44.73 21.7L44.13 22.32L44.57 22.27L45.02 22.31L44.79 22.81L44.28 23.34L44.72 23.42L44.98 24.26L45.26 24.39L45.42 25.14L45.51 25.41L46.06 25.57L45.94 25.98L45.67 26.17L45.82 26.52L45.33 26.85L44.67 26.8L43.81 26.93L43.61 26.78L43.22 27.07L42.79 26.95L42.39 27.18L42.16 27.02L43.03 26.38L43.49 26.28L42.77 26.1L42.7 25.82L43.24 25.66L43.07 25.29L43.26 24.87L43.92 24.99L44.07 24.62L43.86 24.19L43.35 24.03L43.29 23.85L43.53 23.58L43.43 23.39L43.12 23.67L43.26 23.06L43.14 22.72L43.48 22.1L43.93 21.63L44.24 21.71L44.73 21.7ZM28.99 12.7L28.62 12.84L28.89 12.61L29.14 12.54L28.99 12.7ZM29.38 12.19L29.01 12.22L29.24 12.01L29.54 11.95L29.51 12.13ZM31.53 10.9L31.21 11.05L31.1 11.2L30.84 11.43L30.6 11.66L30.27 11.82L30.08 12.07L29.86 12.07L30.05 11.8L30.37 11.6L30.02 11.64L29.7 11.63L30.12 11.41L30.42 11.24L30.97 11.02L31.61 10.8ZM42.54 16.83L42.28 17.16L42.42 17.57L41.8 17.92L40.7 18.14L40.37 18.18L40.02 18.03L39.31 17.69L39.76 17.52L39.33 17.13L39.9 17.14L40 16.98L39.52 16.74L39.96 16.45L40.42 16.46L40.59 16.9L41.21 16.7L41.46 16.91L42.1 16.72L42.54 16.83ZM32.57 11.46L32.86 11.19L33.28 11.07L33.21 11.28L32.9 11.41L32.57 11.46ZM34.55 9.01L34.35 9.02L34.67 8.84L35.1 8.58L35.48 8.59L35.2 8.74L35.02 8.82L34.86 8.88L34.55 9.01ZM52.57 5.08L52.85 5.1L52.48 5.09ZM52.23 5.06L52.57 5.08L52.23 5.08L51.91 5.05L52.23 5.06ZM34.51 9.41L33.77 9.63L34.27 9.58L33.75 9.84L33.23 9.99L32.7 10.26L33.19 10.18L33.79 10.04L34.59 9.78L34.51 9.93L34.37 10.11L34 10.36L33.63 10.49L33.25 10.56L32.85 10.78L32.5 10.9L32.02 10.89L32.19 10.59L31.84 10.69L31.28 10.82L30.98 10.91L30.56 10.97L30.59 10.82L30.35 10.85L29.9 11.03L29.45 11.01L28.79 11.21L28.3 11.4L27.55 11.76L27.29 12.01L26.64 12.39L26.11 12.72L25.7 13.27L25.39 13.56L25.04 13.85L24.8 14.14L24.48 14.47L24.39 14.74L24.3 14.95L23.75 15.29L23.11 15.76L22.4 16.38L21.81 17.06L22.01 17.03L22.65 16.65L23.64 15.87L23.98 15.53L24.29 15.58L24.76 15.45L25.23 15.24L25.67 14.95L26.21 14.5L26.7 14.03L27.42 13.79L28.03 13.39L29.11 12.79L29.28 12.8L29.13 13.1L29.09 13.27L29.3 13.27L29.11 13.52L28.77 13.89L28.52 14.08L28.58 14.34L28.02 14.67L27.2 15.25L27.17 15.44L26.84 15.79L27.34 15.75L28.16 15.39L28.53 15.28L28.03 15.77L27.36 16.51L26.75 17.23L26.31 17.47L26.15 17.93L25.94 18.34L26.04 18.7L25.96 18.95L25.54 19.45L25.6 19.63L25.46 19.89L24.84 20.5L24.48 20.59L24.14 20.67L23.64 20.61L22.95 20.85L22.58 20.67L22.38 20.2L22.19 19.95L22.02 19.81L21.5 20.05L21.11 20.06L20.2 20.51L19.58 20.79L19.75 20.86L20.65 20.44L21.36 20.36L21.61 20.57L21.45 20.98L20.94 21.18L20.38 21.83L20.01 22.31L19.94 22.83L20.29 23.04L21.07 22.57L20.69 23L20.62 23.32L20.05 23.48L19.35 23.43L18.99 23.48L18.44 23.69L18.37 23.5L18.82 23.01L19.51 22.85L19.26 22.58L19.05 22.44L18.9 22.66L18.51 22.74L18.21 22.74L17.94 22.7L17.54 22.96L17.16 23.34L16.92 23.71L17.12 23.57L17.04 23.76L16.88 23.91L16.73 23.87L16.54 23.72L16.41 23.57L16.21 23.57L16.41 23.76L16.34 23.93L16.08 23.82L16.1 23.63L15.94 23.72L15.56 24.18L15.14 24.49L15.26 24.32L15.38 24.03L15.13 24.39L15.05 24.54L14.87 24.77L14.66 24.93L14.25 25.29L14.61 24.91L14.77 24.57L15.17 24.06L14.95 24.27L14.65 24.69L14.7 24.47L14.57 24.8L14.12 25.37L13.94 25.71L13.49 26.35L13.13 26.66L12.96 26.62L12.68 26.83L12.48 26.87L12.33 27.05L12.05 27.21L11.86 27.37L11.62 27.64L11.33 28.05L11.05 28.53L10.72 29.15L10.44 29.71L10.28 30L9.86 30.87L9.63 31.31L9.49 31.55L9.29 31.9L9.29 31.71L9.44 31.38L9.53 31.14L9.84 30.44L10.13 29.83L10.27 29.54L10.51 29.17L10.73 28.75L11.09 28.03L11.16 27.85L11.29 27.42L11.43 27.12L11.47 26.94L11.6 26.67L11.64 26.52L11.51 26.74L11.36 26.99L11.26 27.16L11.33 27.02L11.41 26.87L11.7 26.37ZM8.49 32.62L8.38 32.92L8.25 33.24L8.13 33.5ZM6.95 36.91L6.9 37.07L6.85 37.28L6.78 37.54L6.71 37.78L6.67 37.98L6.6 38.24L6.54 38.43L6.46 38.72L6.41 38.9L6.34 39.16L6.26 39.47L6.21 39.67L6.13 40L6.06 40.31L6.01 40.52L5.94 40.85L5.91 41.01L5.82 41.47L5.74 41.86L5.67 42.3L5.61 42.65L5.59 42.8L5.54 43.16L5.62 43.3L5.62 43.48L5.61 43.72L5.58 44.03L5.56 44.33L5.58 44.49L5.7 44.18L5.78 43.97L5.91 43.4L6.01 43.21L6.06 43.36L6.15 43.5L6.3 43.34L6.51 43.05L6.53 43.44L6.45 43.64L6.41 43.81L6.29 44.16L6.22 44.54L6.09 44.85L6.03 45.53L6.21 45.12L6.22 44.78L6.32 44.21L6.53 44.24L6.59 43.86L6.69 43.72L6.62 44.33L6.72 44.52L6.74 45.1L6.7 45.35L6.84 45.59L7.05 45.79L7.09 46.26L7.23 46.55L7.38 46.46L7.42 46.28L7.7 46.55L7.98 46.84L7.74 46.85L7.75 47.28L7.94 47.54L8.06 48.09L8.01 48.73L8.15 48.84L8.23 49.11L8.37 49.55L8.48 50.19L8.44 50.58L8.55 50.69L8.67 51.19L8.76 51.54L9.12 51.99L9.43 52.02L9.77 52.48L9.88 52.65L10.13 53L10.46 53.88L10.5 54.22L10.7 54.74L10.85 56.17L11.06 56.42L11.06 56.93L10.76 57.37L10.88 57.66L11.58 58.19L11.61 58.93L11.91 58.62L12.45 59.17L13.19 59.99L13.43 60.53L13.37 60.9L13.9 60.92L14.84 61.72L15.58 62L16.37 62.91L17.09 63.97L17.51 64.33L17.98 64.52L18.19 64.82L18.46 65.79L18.59 66.25L18.5 67.34L18.28 67.7L17.67 68.39L17.47 69.04L17.2 69.49L17.04 69.9L17.36 71.16L17.48 72.12L17.55 72.53L17.46 72.73L17.64 73.55L17.43 74.18L17.59 74.79L17.32 74.9L17.36 75.23L16.88 75.01L16.3 74.94L16.13 75.07L15.75 75.02L15.51 75.27L15.48 75.69L15.65 76.11L15.88 76.47L16.12 77.03L16.2 77.27L16.13 77.45L16.36 78.23L16.36 78.5L16.53 79.06L16.56 79.24L16.68 79.49L16.31 79.31L15.8 78.84L15.64 78.72L15.27 78.29L15.47 78.56L16.13 79.29L16.39 79.64L16.73 79.99L16.93 80.24L17.26 80.72L16.85 80.42L16.6 80.15L16.92 80.5ZM9.35 69.3L8.73 67.89L8.27 66.77L7.89 65.75L7.63 65.11L7.53 64.8L7.1 63.6ZM5 49.73L5 49.41L5.03 49.02L5.05 48.69L5.06 48.48L5.12 48.21L5.16 47.93L5.16 47.66L5.2 47.28L5.25 46.55L5.35 45.75L5.39 45.25L5.41 44.95L5.46 44.49L5.5 44.25L5.53 43.96L5.56 43.62L5.48 43.83L5.39 44.44L5.43 43.97L5.47 43.58L5.49 43.42L5.51 43.27ZM47.87 5.05L47.63 5.07L47.2 5.1L46.96 5.11L46.66 5.15L46.25 5.18L45.99 5.19L45.49 5.25L45.03 5.29L44.8 5.32L44.2 5.39L43.7 5.46L43.47 5.5L43.2 5.55L42.74 5.62L42.43 5.67L41.9 5.77L41.34 5.87L41.06 5.93L40.88 6L40.5 6.09L40.16 6.23L39.82 6.3L39.97 6.31L39.78 6.36L38.99 6.53L38.67 6.64L38.52 6.71L38.36 6.8L37.85 6.94L37.23 7.16L36.9 7.28L36.25 7.52L35.75 7.65L35.4 7.87L34.85 8.11L35.01 8.12L35.43 7.97L35.39 8.12L35.14 8.23L34.65 8.41L34.07 8.75L33.86 9.01L34.3 8.88L33.97 9.14L33.31 9.34L33.82 9.23L34.42 9.15L34.93 8.93L35.3 8.76L36.08 8.57L36.52 8.55L36.33 8.68L35.95 8.84L35.06 9.17L34.75 9.19L34.51 9.41ZM39.19 7.03L38.96 7.03L38.87 7.15L38.38 7.29L38.57 7.32L38.25 7.41L37.51 7.58L37.73 7.57L38.49 7.41L38.28 7.54L37.89 7.67L37.17 7.83L36.66 7.94L36.15 8.15L35.65 8.38L35.35 8.44L35.47 8.31L35.14 8.43L34.93 8.46L35.24 8.27L35.62 8.08L35.75 7.88L36.07 7.66L36.24 7.55L36.61 7.45L36.99 7.31L37.74 7.08L37.56 7.21L37.32 7.32L37.66 7.23L37.94 7.08L38.17 6.98L38.47 6.91L38.35 7.04L38.57 6.93L39 6.79L39.31 6.8L39.44 6.95L39.19 7.03ZM38.32 7.65L37.95 7.66L38.58 7.48L38.32 7.65ZM36.95 9.83L36.74 9.9L36.76 9.72L37.1 9.42L37.37 9.35L37.34 9.57L36.95 9.83ZM37.05 9.02L36.56 9.2L37.15 9.12L37.42 9.23L36.63 9.58L36.14 9.71L36.36 9.8L36.66 9.79L36.32 10.09L35.99 10.32L35.67 10.45L35.89 10.54L35.46 10.81L35.28 11.13L35.04 11.33L34.42 11.71L33.98 11.68L33.66 12.12L33.62 12.35L33.1 12.82L33.2 13L32.69 13.23L31.73 13.48L31.91 13.18L32.46 12.67L32.28 12.58L31.87 12.77L31.54 13.09L31.33 13.41L31.18 13.56L30.56 14.01L30.05 14.26L30.12 14L30.47 13.4L29.99 13.9L29.66 14.26L29.44 14.42L29.5 13.93L29.76 13.45L30.03 13.12L30.25 13.06L30.54 12.7L30.83 12.37L30.63 12.47L30.45 12.19L30.68 11.98L31.22 11.82L31.26 12.02L31.41 12.21L31.65 12.05L32.02 11.93L32.77 11.75L33.07 11.59L33.31 11.44L33.61 11.15L33.82 10.85L34.02 10.84L34.46 10.57L34.73 10.32L34.52 10.34L34.42 10.21L34.64 9.82L34.92 9.56L35.09 9.38L35.38 9.24L35.67 9.24L36.49 8.9L37.12 8.8L37.38 8.81L37.51 8.96L37.05 9.02ZM38.26 7.89L38.02 8L37.76 8.17L37.48 8.17L37.07 8.34L36.44 8.47L36.29 8.4L36.42 8.3L36.75 8.19L37.51 7.9L37.73 7.86L37.46 8.03L38.01 7.87L38.26 7.89ZM59.41 6.45L59.65 6.54L59.89 6.65L59.52 6.59L59.29 6.51ZM37.02 8.57L36.54 8.61L37.31 8.33L37.67 8.26L37.95 8.24L37.96 8.42L37.7 8.6L37.11 8.63ZM39.08 6.74L39.25 6.6L39.58 6.54L40.26 6.37L40.68 6.39L40.89 6.42L41.37 6.35L40.97 6.53L40.65 6.61L40.28 6.76L39.98 6.83L39.58 6.92L39.53 6.74L39.32 6.71L39.08 6.74ZM57.33 6.07L57.71 6.12L57.91 6.2L57.78 6.27L57.58 6.19L57.33 6.07ZM38.67 8.22L38.41 8.23L38.54 8.12L38.8 8.01L39.1 7.99L38.92 8.16L38.67 8.22ZM57.92 6.33L58.43 6.37L58.93 6.57L59.29 6.66L59.15 6.75L58.67 6.7L58.4 6.63L58.1 6.5L57.92 6.33ZM40.2 7.72L39.82 7.81L39.44 7.86L38.93 7.91L39.16 7.73L39.57 7.68L40.18 7.52L40.11 7.73ZM40.54 7.2L40.27 7.24L39.83 7.39L39.56 7.39L39.78 7.19L39.93 6.97L40.15 6.95L40.64 6.79L40.92 6.71L41.35 6.76L40.92 6.96L40.36 7.08L40.13 7.19L40.9 7.06L41.06 7.1L40.89 7.16L40.54 7.2ZM60.96 13.52L60.24 13.74L59.96 13.57L59.49 13.56L59.2 13.34L59.27 13.2L58.99 12.97L58.88 12.53L58.67 12.53L58.57 12.07L58.28 11.91L58.29 11.61L58.33 11.22L58.59 10.99L58.53 10.78L58.64 10.64L58.96 10.73L59.1 10.86L59.04 11.21L58.97 11.54L59.11 12.05L59.44 12.5L59.71 12.97L60.18 13.3L60.96 13.52ZM40.28 7.91L39.99 8.01L39.64 8.22L39.37 8.25L39.16 8.36L38.96 8.43L38.79 8.64L38.92 8.71L38.9 8.95L38.61 9.09L38.29 9.18L38.09 9.19L37.94 9.12L38.04 9.01L37.97 8.83L38.16 8.55L38.51 8.32L38.93 8.22L39.3 8.15L39.67 8.04L39.86 7.9L40.14 7.8L40.42 7.79L40.28 7.91ZM42.23 6.75L41.77 6.75L41.68 6.58L42.08 6.44L42.3 6.52L42.45 6.62L42.28 6.69ZM60.07 8.38L60.44 8.43L60.23 8.34L60.15 8.17L60.43 8.09L60.67 8.08L61.06 8.16L61.33 8.27L61.85 8.53L62.1 8.63L62.28 8.49L62.1 8.4L62.55 8.46L62.33 8.39L62.13 8.25L62.04 8.04L62.35 8.08L62.11 7.79L61.58 7.7L61.35 7.47L61.53 7.4L61.9 7.43L62.24 7.52L62.6 7.51L61.86 7.26L61.52 7.05L61.14 6.87L60.97 6.77L60.54 6.75L60.1 6.65L58.93 6.16L57.97 5.81L57.6 5.73L57.87 5.73L57.68 5.68L57.28 5.62L56.84 5.54L56.43 5.47L55.92 5.4ZM55.3 5.31L55.13 5.3L54.37 5.22L53.82 5.16ZM91.44 32.46L91.81 33.37L92.13 34.22L92.33 34.76L92.53 35.29ZM94.14 41.27L94.09 41.01L93.94 40.39L93.77 39.94L93.77 40.17L93.97 40.98L94.19 42.18L94.32 42.91L94.41 43.42L94.42 43.27L94.53 43.82L94.62 44.41L94.67 44.68L94.7 44.85ZM94.89 46.91L94.84 46.34L94.81 46.03L94.75 45.47L94.71 45.22L94.68 45.04L94.63 44.72L94.57 44.45L94.5 44.23L94.57 44.71L94.5 44.35L94.43 43.87L94.31 43.09L94.21 42.57L94.1 41.94L93.99 41.6L93.81 40.79L93.71 40.52L93.47 39.75L93.2 38.89L93 38.42L93.08 38.94L93.18 39.74L93.03 39.81L92.77 38.84L92.54 38.23L92.18 37.61L92.1 37.33L91.73 36.99L91.56 36.69L91.41 36.35L91.25 36.06L91.03 35.76L90.91 35.95L91.05 36.22L91.17 36.69L91.02 36.8L91.03 37.13L90.93 37.28L90.79 37.73L91.01 38.25L91.08 38.81L90.99 39.64L91.06 40.76L91.04 41.4L90.97 42.13L91.07 42.46L91 42.76L90.86 43.25L90.75 43.4L90.83 44.03L91.12 44.94L91.28 45.54L91.32 46.35L91.56 47.61L91.43 47.78L91.4 48.45L91.52 48.62L91.3 49.06L91.27 49.65L91.19 49.96L90.8 49.5L90.49 48.57L90.23 47.91L90.05 47.64L89.74 47.05L89.45 46.18L89.28 45.75L88.73 44.94L88.19 43.6L87.8 42.73L87.52 41.83L87.22 41.19L86.87 41.95L86.58 42.02L85.8 41.41L85.89 41.04L85.68 40.81L85.01 40.44L84.66 40.41L84.35 39.94L83.84 39.54L83.15 40.05L82.47 40.38L81.9 40.76L80.97 40.88L80.4 40.91L79.84 41.02L79.32 40.19L79.04 40.14L78.72 40.4L78.34 40.93L77.64 40.89L76.94 40.48L76.37 40.42L75.79 39.82L75.07 38.94L74.83 39.14L74.42 38.99L74.31 39.33L73.99 39.38L74.2 39.68L74.21 39.86L74.56 40.38L74.97 40.97L75.29 41.07L75.46 41.31L75.93 41.52L76.05 41.82L76.07 42.08L76.21 42.32L76.43 42.48L76.57 42.71L76.71 42.87L76.51 42.33L76.54 41.9L76.66 41.77L76.89 41.96L77.03 42.4L77.05 42.88L77.23 43.13L77.39 43.27L77.78 43.02L78.21 42.9L78.53 42.82L78.73 42.2L78.95 41.59L79.12 41.02L79.17 40.71L79.31 41.08L79.29 41.24L79.55 41.81L79.93 42.24L80.29 42.41L80.68 42.37L81 42.4L81.35 42.74L81.55 42.94L81.75 42.97L81.8 43.14L81.76 43.65L81.75 43.89L81.62 44.21L81.58 44.8L81.34 44.84L81.29 45.06L81.31 45.48L81.5 45.96L81.25 46.15L81 46.55L81.04 46.94L80.95 47.14L80.63 47.25L80.47 47.51L80.54 47.82L80.33 48.12L80.02 48.15L79.71 48.52L79.46 48.65L79.1 48.98L79.06 49.35L79.1 49.62L78.59 50.11L77.73 50.74L77.29 51.43L77.03 51.54L76.84 51.54L76.54 51.95L76.17 52.2L75.66 52.37L75.51 52.45L75.4 52.69L75.24 52.79L75.17 53L74.86 53.06L74.67 53.21L74.22 53.27L74 52.86L73.97 52.44L73.83 52.23L73.63 51.69L73.4 51.41L73.4 51.01L73.46 50.85L73.38 50.51L73.24 50.2L73.02 50.01L72.92 49.72L72.54 49.51L72.1 48.93L71.81 48.34L71.28 47.9L70.97 47.83L70.42 47.17L70.24 46.65L70.19 46.18L69.66 45.4L69.3 45.15L68.93 45.05L68.64 44.65L68.64 44.47L68.38 44.1L68.16 43.96L67.8 43.43L67.29 42.88L66.86 42.4L66.55 42.46L66.56 42.02L66.54 41.75L66.55 41.43L66.39 41.66L66.38 42.26L66.29 42.68L66.16 42.84L65.9 42.62L65.55 42.32L64.89 41.29L65.25 42.14L65.79 42.85L66.5 43.98L66.81 44.36L67.1 44.77L67.83 45.53L67.73 45.68L67.84 46.18L68.71 46.75L68.86 46.89L69.19 47.61L69.07 47.78L69.3 48.56L69.68 49.44L69.96 49.59L70.36 49.81L70.87 50.63L71.15 51.31L71.57 51.62L72.56 52.17L72.97 52.53L73.38 52.9L73.62 53.12L73.96 53.28L74.14 53.49L74.16 53.81L73.81 54.08L74.11 54.23L74.34 54.32L74.5 54.61L74.82 54.86L75.14 54.79L75.71 54.45L76.38 54.19L76.89 53.82L77.19 53.69L77.39 53.49L77.73 53.37L77.92 53.3L78.18 53.11L78.48 52.94L78.72 52.6L78.94 52.53L78.98 52.74L78.99 53.2L79.04 53.6L78.95 53.91L78.88 54.78L78.68 55.72L78.39 56.79L77.95 58.04L77.47 59.03L76.77 60.24L76.16 61L75.2 61.97L74.6 62.67L73.87 63.72L73.71 64.14L73.56 64.35L73.08 64.74L72.91 65.07L72.66 65.18L72.55 65.71L72.32 66.04L72.17 66.55L71.88 66.84L71.52 67.78L71.54 68.17L71.96 68.34L71.97 68.52L71.75 68.98L71.77 69.19L71.7 69.53L71.9 69.92L72.12 70.54L72.35 70.64L72.42 70.93L72.32 71.61L72.33 72.18L72.21 73.22L72.27 73.52L72 74.02L71.68 74.52L71.19 75L70.55 75.36L69.75 75.8L68.88 76.6L68.6 76.76L68.05 77.28L67.75 77.46L67.61 77.9L67.84 78.31L67.9 78.64L67.87 78.82L67.85 79.35L67.68 79.64L67.65 79.96L67.33 80.21L66.75 80.49L65.9 80.91L65.56 81.16L65.56 81.38L65.72 81.4L65.59 81.7L65.33 82.11L65.14 82.57L64.91 82.83L64.4 83.16L64.26 83.25L63.92 83.55L63.67 83.83L63.21 84.24L62.35 84.84L61.83 85.18L61.3 85.45L60.59 85.7L60.27 85.76L60.15 85.9L59.79 85.87L59.45 85.98L58.79 85.95L58.39 86.04L58.13 86.04L57.44 86.27L56.89 86.38L56.46 86.57L56.17 86.6L55.93 86.46L55.71 86.46L55.47 86.27L55.4 85.94L55.23 85.63L55.45 85.53L55.48 85.16L55.09 84.72L54.8 84.31L54.37 83.66L53.88 83.28L53.64 82.9L53.51 82.38L53.36 81.99L53.16 81.13L53.18 80.45L53.1 80.14L52.82 79.9L52.46 79.42L52.09 78.71L51.94 78.33L51.34 77.74L51.3 77.26L51.23 76.87L51.34 76.31L51.61 75.72L51.65 75.44L51.91 74.85L52.09 74.58L52.54 74.14L52.79 73.84L52.88 73.34L52.84 72.96L52.62 72.73L52.41 72.32L52.23 71.91L52.51 71.49L52.28 70.83L52.13 70.36L51.74 69.92L51.81 69.78L51.7 69.57L51.5 69.04L50.86 68.29L50.05 67.56L49.53 66.96L49.06 66.2L49.08 65.96L49.25 65.73L49.44 65.19L49.6 64.64L49.45 64.53L49.72 63.69L49.84 63.1L49.53 62.6L49.18 62.47L49.02 62.13L48.82 62.02L48.83 61.81L48.01 62.08L47.72 62.03L47.42 62.2L46.79 62.17L46.38 61.68L46.12 61.12L45.58 60.61L44.99 60.59L44.31 60.56L43.67 60.62L43.04 60.75L41.83 61.13L41.4 61.36L40.7 61.53L40.03 61.27L39.68 61.25L39.15 61.05L38.67 61.02L37.77 61.07L37.24 61.24L36.49 61.44L36.15 61.39L35.4 60.94L34.75 60.28L34.14 59.79L33.67 59.23L33.47 59.15L32.97 58.77L32.62 58.3L32.51 58.01L32.45 57.43L32.17 56.93L31.92 56.58L31.74 56.46L31.58 56.28L31.53 55.92L31.44 55.74L31.24 55.58L30.9 55.2L30.61 55.1L30.47 54.85L30.29 54.54L30.27 54.36L30.21 53.75L30.34 53.42L30.12 52.77L29.82 52.44L30.13 52.34L30.53 51.85L30.74 51.48L30.73 51.06L30.97 50.71L31.15 49.99L31.19 49.21L31.16 48.81L31.29 48.43L31.18 48.04L30.89 47.64L30.97 47.32L31.06 46.97L31.35 46.8L31.63 46.43L31.63 46.16L31.95 45.65L32.4 45.22L32.64 45.13L32.89 44.71L32.98 44.3L33.3 43.86L33.78 43.65L34.33 42.92L34.72 42.66L35.34 42.66L35.94 42.2L36.29 42.04L36.94 41.47L36.95 40.5L37.31 39.87L37.46 39.48L37.96 39.02L38.65 38.74L39.16 38.48L39.71 37.74L39.98 37.3L40.43 37.34L40.75 37.7L41.35 37.7L41.97 37.91L42.25 37.94L42.9 37.57L43.59 37.49L44.02 37.2L44.64 37L45.71 36.92L46.75 36.89L47.06 37.02L47.66 36.73L48.33 36.74L48.58 36.92L49.01 36.88L49.69 36.58L50.13 36.67L50.11 37.05L50.64 36.77L50.69 36.92L50.38 37.29L50.38 37.64L50.6 37.82L50.52 38.48L50.1 38.86L50.22 39.28L50.56 39.29L50.73 39.65L50.98 39.77L51.76 40.02L52.03 39.95L52.59 40.07L53.48 40.39L53.83 41.06L54.43 41.19L55.4 41.47L56.14 41.81L56.45 41.59L56.73 41.22L56.53 40.64L56.7 40.26L57.13 39.87L57.57 39.74L58.46 39.83L58.72 40.15L58.96 40.13L59.18 40.25L59.84 40.28L60.03 40.52L60.88 40.42L61.53 40.56L62.2 40.72L62.52 40.8L62.97 40.5L63.19 40.25L63.73 40.12L64.19 40.15L64.43 40.51L64.53 40.24L65.06 40.35L65.55 40.32L65.82 40.08L65.94 39.8L65.97 39.39L65.95 38.8L65.99 38.6L66.07 37.94L66.22 37.37L66.02 36.78L66.08 36.45L65.78 36.15L65.92 35.84L65.59 35.96L65.07 35.87L64.78 36.35L63.92 36.57L63.35 36.24L62.71 36.29L62.64 36.62L62.25 36.76L61.59 36.43L60.94 36.52L60.45 35.82L59.94 35.45L60.11 34.85L59.68 34.54L60.18 33.77L61.05 33.64L61.15 33.07L62.24 33.03L62.77 32.47L63.34 32.18L64.21 32.03L65.29 32.38L66.14 32.52L66.7 32.29L67.17 32.27L67.63 31.78L67.58 31.46L67.27 31.01L66.89 30.81L66.58 30.79L66.32 30.61L65.46 30.14L64.8 29.99L64.22 29.65L64.54 29.48L64.72 28.84L64.35 28.62L64.94 28.21L64.86 28.07L64.49 28.25L64.13 28.38L63.9 28.65L63.46 28.76L63.13 29.09L63.3 29.51L63.61 29.64L64.1 29.51L64.09 29.77L63.58 29.98L63.03 30.5L62.7 30.4L62.7 30.05L62.08 29.93L62.13 29.78L62.54 29.48L62.35 29.35L61.51 29.28L61.4 29.03L60.96 29.18L60.88 29.58L60.62 30.15L60.68 30.33L60.47 30.51L60.29 30.46L60.35 31.33L60.14 31.65L60.06 32.19L60.33 32.58L60.46 32.85L61 33.02L60.94 33.21L60.28 33.33L60.09 33.58L59.69 34.02L59.44 33.7L59.42 33.55L59.07 33.56L58.75 33.52L58.09 33.77L58.56 34.15L58.29 34.29L57.96 34.32L57.59 33.97L57.51 34.14L57.7 34.56L58.05 34.89L57.85 35.07L58.24 35.38L58.57 35.57L58.64 35.99L58.06 35.84L58.29 36.2L57.91 36.31L58.24 36.95L57.83 36.99L57.28 36.71L56.98 36.12L56.81 35.64L56.53 35.31L56.17 34.91L56.11 34.7L55.97 34.49L55.61 34.27L55.52 33.92L55.51 33.42L55.57 33.19L55.46 33.08L55.14 32.8L54.88 32.67L54.31 32.43L53.96 32.18L53.42 31.99L52.91 31.48L52.74 31.13L52.72 30.89L52.35 30.79L52.2 31.1L52.02 30.86L52.02 30.62L52.16 30.54L51.72 30.44L51.28 30.7L51.33 31.05L51.26 31.26L51.46 31.62L52.01 31.97L52.32 32.56L53 33.13L53.45 33.11L53.61 33.27L53.46 33.42L54 33.66L54.45 33.86L55 34.22L55.07 34.36L54.99 34.63L54.62 34.3L54.1 34.2L53.88 34.69L54.34 34.94L54.3 35.33L54.05 35.39L53.77 36.04L53.52 36.1L53.5 35.87L53.6 35.47L53.72 35.31L53.46 34.89L53.25 34.52L53 34.44L52.8 34.12L52.41 34L52.14 33.71L51.7 33.67L51.24 33.35L50.69 32.88L50.29 32.47L50.11 31.75L49.83 31.67L49.38 31.43L49.12 31.53L48.78 31.86L48.54 31.91L48.01 32.3L46.9 32.08L46.05 32.28L45.95 32.71L45.94 33.14L45.34 33.6L44.58 33.71L44.5 33.96L44.09 34.34L43.79 34.93L43.97 35.37L43.58 35.67L43.39 36.15L42.91 36.27L42.41 36.81L41.62 36.76L41.04 36.7L40.62 36.93L40.34 37.19L40.05 37.1L39.87 36.82L39.77 36.38L39.23 36.2L38.96 36.37L38.66 36.23L38.34 36.28L38.55 35.71L38.59 35.25L38.34 35.15L38.27 34.85L38.42 34.38L38.71 34.14L38.82 33.85L39.03 33.43L39.09 33.12L39.04 32.85L39.07 32.6L39.22 32.1L39.08 31.76L39.97 31.33L40.6 31.53L41.34 31.6L41.9 31.78L42.36 31.78L43.26 31.87L43.61 31.46L43.93 30.06L43.51 29.29L43.19 28.91L42.46 28.58L42.52 28.07L43.2 27.98L44.01 28.22L43.99 27.44L44.41 27.76L45.66 27.3L45.88 26.76L46.32 26.64L46.73 26.53L47 26.35L47.51 25.39L48.17 25.13L48.55 25.16L48.65 25.02L49.04 24.99L49.12 25.14L49.45 24.82L49.35 24.58L49.34 24.21L49.16 23.85L49.17 23.2L49.25 23.03L49.38 22.85L49.75 22.81L49.91 22.64L50.24 22.46L50.23 22.78L50.11 22.99L50.16 23.16L50.4 23.26L50.29 23.5L49.84 23.89L49.96 24.2L49.97 24.45L50.43 24.6L50.43 24.83L50.9 24.7L51.15 24.52L51.68 24.77L51.91 24.97L52.21 24.77L52.9 24.45L53.44 24.21L53.9 24.29L53.96 24.45L54.39 24.43L54.45 24.14L55.02 23.9L54.82 23.37L54.74 22.9L54.87 22.49L55.21 22.25L55.64 22.69L55.98 22.65L55.93 22.17L55.88 21.8L55.75 21.89L55.44 21.7L55.32 21.35L55.76 21.14L56.22 21.01L56.67 21.07L57.06 21.01L57.36 20.63L56.87 20.4L56.22 20.52L55.62 20.8L55.03 20.97L54.73 20.67L54.32 20.5L54.27 19.91L53.97 19.4L54.06 19.06L54.28 18.68L54.85 18.02L55.03 17.89L54.92 17.66L54.4 17.44L53.9 17.64L53.69 18.04L53.83 18.38L53.4 18.86L52.81 19.39L52.67 20.22L53.01 20.62L53.43 20.94L53.18 21.63L52.78 21.8L52.75 22.84L52.57 23.44L52.04 23.39L51.83 23.9L51.31 23.95L51.14 23.35L50.76 22.64L50.42 21.77L50.14 21.39L49.33 22.1L48.78 22.24L48.23 21.91L48.14 21.25L48.15 19.88L48.52 19.51L49.49 19.05L50.18 18.47L50.76 17.69L51.41 16.64L51.84 16.23L52.48 15.55L53 15.3L53.43 15.29L53.67 14.85L54.13 14.83L54.52 14.69L55.47 14.95L55.22 15.12L55.66 15.39L55.82 15.19L56.41 15.42L57.18 15.43L58.53 15.8L58.9 16L59.17 16.33L59.06 16.65L58.7 16.88L57.2 16.7L57.03 16.79L57.71 17.1L58.2 17.89L58.68 17.99L59.01 18.09L58.89 17.82L58.56 17.61L58.64 17.39L59.56 17.58L59.72 17.41L59.26 17.06L59.54 16.43L59.81 16.41L60.19 16.53L60.07 16.15L59.61 15.91L59.49 15.59L59.06 15.33L59.86 15.32L60.24 15.56L59.99 15.69L60.22 15.96L60.56 16.08L60.85 15.88L60.62 15.55L60.89 15.2L61.22 14.57L61.4 14.54L61.5 14.88L61.81 14.85L61.78 14.64L62.14 14.5L62.2 14.21L62.75 14.38L62.58 14.01L62.07 13.85L61.97 13.67L62.64 13.58L63.05 13.6L64.32 13.77L64.09 13.5L63.61 13.37L63.47 13.29L63.23 13.35L62.99 13.14L62.43 12.88L62.23 12.76L61.9 12.29L61.4 11.92L61.83 11.71L62.22 11.88L62.65 12.24L62.93 12.3L63.43 12.53L64.3 13.06L64.84 13.19L65.22 13.49L65.85 14.24L66.11 14.2L65.94 14.01L65.93 13.8L65.64 13.58L65.44 13.32L64.99 13.15L64.62 12.86L64.43 12.93L64.03 12.74L63.46 12.31L62.77 12.13L62.51 11.76L62 11.54L62.47 11.64L63.08 12L63.32 11.97L62.78 11.77L62.67 11.51L62.81 11.34L63.36 11.37L62.71 11.18L61.94 10.87L61.92 10.69L62.1 10.53L62.12 10.34L61.7 10.26L61.27 10.01L61 9.68L60.97 9.48L60.77 9.4L60.75 9.21L60.93 9.2L60.54 8.96L60.23 8.76L59.9 8.63L59.56 8.44L59.78 8.38L59.99 8.5ZM71.33 31.08L71.8 31.5L72.03 31.47L72.25 31.62L71.9 31.78L72.07 32.35L72.1 32.62L72 32.83L72.16 33.18L72.54 33.66L73.06 33.68L73.54 33.94L74.27 33.86L74.9 33.44L74.86 33.26L74.55 32.79L74.26 32.04L73.8 31.92L73.68 31.41L73.36 31.46L73.17 30.85L73.66 30.89L73.92 30.54L73.4 30.24L73.07 29.89L72.82 30.17L73.03 30.69L72.67 30.29L72.56 30.13L72.52 29.81L72.31 29.6L71.69 29.52L71.18 28.97L70.85 28.87L70.72 28.66L71.17 28.6L70.92 28.11L71.21 27.9L71.62 27.88L71.32 27.22L71 26.84L70.63 27L70.19 26.94L69.89 27.37L69.57 27.61L69.59 28.06L69.23 28.28L69.14 29.09L69.86 29.63L70.04 30.1L70.92 30.78L71.33 31.08ZM40.56 7.92L40.69 7.78L40.9 7.75L40.64 7.91ZM41.71 7.04L42.03 6.87L41.88 7.05L41.71 7.04ZM52.41 11.79L52.12 11.99L51.79 11.92L51.72 11.68L52.01 11.57L52.14 11.72L52.41 11.79ZM42.27 7.04L42.38 6.91L42.58 6.96L42.27 7.04ZM41.04 7.76L41.17 7.64L41.46 7.59L41.77 7.56L41.61 7.66L41.3 7.75L41.04 7.76ZM41.45 7.52L41.12 7.57L41.3 7.47L41.63 7.37L41.8 7.26L42.19 7.23L42.46 7.22L42.24 7.31L41.83 7.46L41.45 7.52ZM59.08 8.32L59.42 8.68L58.4 8.39L58.77 8.25L59.08 8.32ZM51.15 11.12L51.73 11.39L51.4 11.57L51.4 11.87L51.27 11.96L51.27 12.31L51.06 12.34L50.65 12.09L50.78 11.94L50.52 11.82L50.19 11.48L50.06 11.17L50.43 11.02L50.52 11.16L50.72 11.15L50.95 10.99L51.15 11.12ZM52 10.78L52.32 10.89L52.25 11.11L51.87 11.19L51.43 11.16L51.17 11.05L50.97 10.88L51.33 10.75L51.56 10.83L52 10.78ZM54.86 10.19L54.74 10.32L54.53 10.42L54.2 10.35L54.32 10.24L54.47 10.19L54.62 10.28L54.57 10.1L54.82 10.13ZM58.68 8.51L58.77 8.64L58.52 8.74L58.2 8.76L57.64 8.68L57.46 8.71L56.98 8.49L56.83 8.37L57.23 8.36L57.98 8.38L58.68 8.51ZM41.98 8.06L41.72 8.16L41.51 8.12L40.98 8.1L41.14 7.89L41.48 7.8L41.75 7.77L41.92 7.79L42.27 7.63L42.63 7.58L42.94 7.59L43.14 7.6L43.35 7.61L42.88 7.79L42.68 7.88L42.5 7.96L41.98 8.06ZM44.71 8.39L44.66 8.57L44.51 8.68L44.31 8.72L43.92 8.72L43.7 8.66L43.5 8.66L43.04 8.76L42.79 8.74L42.13 8.8L41.96 8.73L41.79 8.73L41.67 8.6L41.45 8.68L41.08 8.8L40.8 8.81L40.57 8.77L40.27 8.81L40.04 8.78L39.86 8.82L39.71 8.96L39.25 8.9L39.48 8.69L39.4 8.53L39.53 8.42L39.62 8.29L39.98 8.23L40.67 8.19L40.33 8.42L40.84 8.26L41.02 8.15L41.3 8.15L41.45 8.22L41.71 8.19L42.03 8.08L42.44 8.01L42.28 8.19L42.55 8.22L42.65 8.1L42.94 7.85L43.27 7.79L43.52 7.73L43.78 7.7L44 7.85L44.27 7.87L44 7.98L44.41 7.96L44.62 8.04L44.74 8.23L44.71 8.39ZM46.94 9.37L47.08 9.73L46.76 9.82L46.41 9.75L45.92 9.66L46.22 9.78L46.33 9.95L46.64 9.89L46.56 10.03L46.21 10.2L46.62 10.13L47.25 10.08L47.49 10.2L47.42 10.36L46.74 10.54L46.59 10.61L46.16 10.61L46.41 10.68L46 10.91L45.65 11.13L45.23 11.56L45.17 11.85L44.91 11.82L44.53 11.89L44.62 12.16L44.34 12.52L44.12 12.52L44.03 12.92L43.59 12.87L43.65 13.09L43.45 13.23L43.12 13.24L42.85 13.18L42.82 13.53L42.64 13.72L42.42 13.45L42.21 13.55L42.37 13.72L42.39 14.05L42.16 14.43L41.69 14.43L41.68 14.22L41.67 13.9L41.45 14.22L40.97 14.4L41.53 14.56L41.82 14.65L40.85 14.92L39.89 15.13L39.07 15.11L38.83 15.04L38.41 15.14L37.58 15.54L36.74 15.7L36.57 15.66L36.15 15.67L35.72 15.66L35.2 15.87L34.81 16.2L34.34 16.47L33.55 16.7L33.2 17.12L32.65 17.48L32 17.92L31.64 17.8L31.77 17.23L31.36 17.01L31.49 16.64L31.95 16.11L32.41 15.36L32.73 15.03L33.28 14.63L33.66 14.11L34.19 13.84L34.32 13.64L35.21 13.27L35.66 13.26L35.98 13.13L36.51 12.85L36.13 12.89L35.97 12.9L35.76 12.88L35.83 12.66L36.27 12.41L36.67 12.25L36.86 12.57L37.07 12.21L37.2 12.02L37 11.99L37.08 11.85L37.82 11.62L38.02 11.45L38.42 11.18L39.05 10.78L39.23 10.58L39.52 10.46L39.76 10.14L39.7 9.99L39.53 9.83L39.38 9.7L39.58 9.55L40 9.31L40.31 9.4L40.43 9.51L40.48 9.21L40.74 9L41.04 8.94L41.5 9.05L41.97 9.14L42.26 9.08L42.44 8.89L42.77 8.86L43.4 8.87L43.85 8.81L44.13 8.84L44.36 8.92L44.5 9.02L44.34 9.12L44.85 9.08L44.73 9.24L44.69 9.46L44.88 9.25L45.17 9.15L45.74 9.09L45.91 9.19L46.21 9.12L46.47 9.18L46.94 9.37Z" fill="#1e3a8a" stroke="none"/></svg>